<svg xmlns="http://www.w3.org/2000/svg" width="256" height="256" viewBox="0 0 100 100"><rect width="100" height="100" rx="20" fill="#2c2c30"></rect><path fill="#fa4454" d="M40.47 23.71L40.47 58.21Q40.47 65.79 36.31 71.04Q32.15 76.29 22.77 76.29L22.77 76.29Q18.95 76.29 15.31 75.09Q11.67 73.89 8.67 71.56L8.67 71.56L11.52 67.29Q17.15 70.81 22.70 70.81L22.70 70.81Q28.10 70.81 31.02 67.40Q33.95 63.99 33.95 57.91L33.95 57.91L33.95 29.04L18.65 29.04L18.65 23.71L40.47 23.71ZM70.85 67.96L84.80 23.71L91.32 23.71L74.07 75.39L67.32 75.39L50.07 23.71L57.05 23.71L70.85 67.96Z"></path></svg>